<svg width="448" height="448" viewBox="0 0 448 448" fill="none" xmlns="http://www.w3.org/2000/svg">
<g clip-path="url(#clip0_51_961)">
<path d="M448 0H0V448H448V0Z" fill="url(#paint0_linear_51_961)"/>
<path d="M224 354.667C296.165 354.667 354.667 296.165 354.667 224C354.667 151.835 296.165 93.3333 224 93.3333C151.835 93.3333 93.3333 151.835 93.3333 224C93.3333 296.165 151.835 354.667 224 354.667Z" fill="#FAFAFA" stroke="#D4D4D4"/>
<path d="M224 302.4C248.742 302.4 268.8 287.357 268.8 268.8C268.8 250.243 248.742 235.2 224 235.2C199.258 235.2 179.2 250.243 179.2 268.8C179.2 287.357 199.258 302.4 224 302.4Z" fill="#FAFAFA"/>
<path d="M224 294.933C244.619 294.933 261.333 283.233 261.333 268.8C261.333 254.367 244.619 242.667 224 242.667C203.381 242.667 186.667 254.367 186.667 268.8C186.667 283.233 203.381 294.933 224 294.933Z" fill="#D4D4D4"/>
<path d="M209.067 274.4C214.221 274.4 218.4 271.893 218.4 268.8C218.4 265.707 214.221 263.2 209.067 263.2C203.912 263.2 199.733 265.707 199.733 268.8C199.733 271.893 203.912 274.4 209.067 274.4Z" fill="#525252"/>
<path d="M238.933 274.4C244.088 274.4 248.267 271.893 248.267 268.8C248.267 265.707 244.088 263.2 238.933 263.2C233.779 263.2 229.6 265.707 229.6 268.8C229.6 271.893 233.779 274.4 238.933 274.4Z" fill="#525252"/>
<path d="M186.667 209.067C199.038 209.067 209.067 199.038 209.067 186.667C209.067 174.295 199.038 164.267 186.667 164.267C174.295 164.267 164.267 174.295 164.267 186.667C164.267 199.038 174.295 209.067 186.667 209.067Z" fill="#0A0A0A"/>
<path d="M261.333 209.067C273.704 209.067 283.733 199.038 283.733 186.667C283.733 174.295 273.704 164.267 261.333 164.267C248.962 164.267 238.933 174.295 238.933 186.667C238.933 199.038 248.962 209.067 261.333 209.067Z" fill="#0A0A0A"/>
<path d="M190.4 184.8C195.555 184.8 199.733 180.621 199.733 175.467C199.733 170.312 195.555 166.133 190.4 166.133C185.245 166.133 181.067 170.312 181.067 175.467C181.067 180.621 185.245 184.8 190.4 184.8Z" fill="#FAFAFA"/>
<path d="M265.067 184.8C270.221 184.8 274.4 180.621 274.4 175.467C274.4 170.312 270.221 166.133 265.067 166.133C259.912 166.133 255.733 170.312 255.733 175.467C255.733 180.621 259.912 184.8 265.067 184.8Z" fill="#FAFAFA"/>
<path d="M192.267 181.067C194.329 181.067 196 179.395 196 177.333C196 175.271 194.329 173.6 192.267 173.6C190.205 173.6 188.533 175.271 188.533 177.333C188.533 179.395 190.205 181.067 192.267 181.067Z" fill="#FAFAFA"/>
<path d="M266.933 181.067C268.995 181.067 270.667 179.395 270.667 177.333C270.667 175.271 268.995 173.6 266.933 173.6C264.871 173.6 263.2 175.271 263.2 177.333C263.2 179.395 264.871 181.067 266.933 181.067Z" fill="#FAFAFA"/>
<path d="M160.8 171.269C175.749 164.298 179.392 140.469 168.935 118.044C158.478 95.6203 137.883 83.093 122.933 90.0641C107.984 97.0351 104.342 120.865 114.798 143.289C125.255 165.713 145.85 178.24 160.8 171.269Z" fill="#FAFAFA"/>
<path d="M287.2 171.269C302.149 178.24 322.745 165.713 333.202 143.289C343.658 120.865 340.016 97.0351 325.067 90.0641C310.117 83.093 289.521 95.6203 279.065 118.044C268.608 140.469 272.251 164.298 287.2 171.269Z" fill="#FAFAFA"/>
<path d="M154.489 157.735C163.832 153.378 165.755 137.727 158.784 122.778C151.813 107.828 138.588 99.2414 129.244 103.598C119.901 107.955 117.978 123.606 124.949 138.556C131.92 153.505 145.145 162.092 154.489 157.735Z" fill="#D4D4D4"/>
<path d="M293.511 157.735C302.855 162.092 316.08 153.505 323.051 138.556C330.022 123.606 328.099 107.955 318.756 103.598C309.412 99.2414 296.187 107.828 289.216 122.778C282.245 137.727 284.168 153.378 293.511 157.735Z" fill="#D4D4D4"/>
<path d="M227.733 93.3333H220.267C216.143 93.3333 212.8 96.6763 212.8 100.8C212.8 104.924 216.143 108.267 220.267 108.267H227.733C231.857 108.267 235.2 104.924 235.2 100.8C235.2 96.6763 231.857 93.3333 227.733 93.3333Z" fill="#525252"/>
</g>
<defs>
<linearGradient id="paint0_linear_51_961" x1="0" y1="0" x2="44800" y2="44800" gradientUnits="userSpaceOnUse">
<stop stop-color="#0A0A0A"/>
<stop offset="1" stop-color="#525252"/>
</linearGradient>
<clipPath id="clip0_51_961">
<rect width="448" height="448" fill="white"/>
</clipPath>
</defs>
</svg>
